<?xml version="1.0" encoding="utf-8"?>
<!-- Generator: Adobe Illustrator 15.0.0, SVG Export Plug-In . SVG Version: 6.00 Build 0)  -->
<!DOCTYPE svg PUBLIC "-//W3C//DTD SVG 1.1//EN" "http://www.w3.org/Graphics/SVG/1.1/DTD/svg11.dtd">
<svg version="1.1" id="Layer_1" xmlns="http://www.w3.org/2000/svg" xmlns:xlink="http://www.w3.org/1999/xlink" x="0px" y="0px"
	 width="1000px" height="202px" viewBox="0 0 1000 202" enable-background="new 0 0 1000 202" xml:space="preserve">
<g>
	<g>
		<path fill="#293896" d="M45.417,193.646c-3.036,2.855-6.786,4.287-11.237,4.287c-4.054,0-7.494-1.108-10.328-3.335
			c-2.837-2.224-4.251-4.917-4.251-8.091c0-2.86,1.009-5.155,3.038-6.905l73.808-77.827c3.44-3.65,7.997-6.625,13.667-8.928
			c5.667-2.297,11.741-3.45,18.224-3.45c6.077,0,11.845,1.034,17.314,3.093c5.469,2.063,9.917,4.921,13.364,8.569l73.809,77.353
			c1.215,1.113,2.224,2.346,3.036,3.689c0.807,1.351,1.215,2.821,1.215,4.406c0,3.174-1.419,5.867-4.251,8.091
			c-2.839,2.227-6.279,3.335-10.328,3.335c-4.859,0-8.709-1.508-11.542-4.529l-70.773-74.016c-1.417-1.27-3.189-2.655-5.313-4.168
			c-2.126-1.5-4.305-2.261-6.531-2.261c-2.229,0-4.402,0.761-6.529,2.261c-2.126,1.513-3.797,2.898-5.012,4.168L45.417,193.646z"/>
		<path fill="#293896" d="M554.164,186.507c0,3.174-1.415,5.867-4.249,8.091c-2.835,2.227-6.276,3.335-10.326,3.335
			c-4.049,0-7.491-1.108-10.329-3.335c-2.835-2.224-4.245-4.917-4.245-8.091v-51.885c0-6.502-0.516-9.757-1.526-9.757
			c-0.808,0-3.642,2.138-8.502,6.425l-66.818,59.5c-2.632,2.384-5.875,4.168-9.716,5.354c-3.85,1.19-8.004,1.789-12.455,1.789
			c-4.456,0-8.609-0.599-12.453-1.789c-3.85-1.186-7.09-2.97-9.721-5.354l-66.82-59.5c-4.66-4.287-7.494-6.425-8.505-6.425
			c-1.016,0-1.52,3.255-1.52,9.757v51.885c0,3.174-1.419,5.867-4.251,8.091c-2.839,2.227-6.281,3.335-10.328,3.335
			c-4.052,0-7.494-1.108-10.326-3.335c-2.839-2.224-4.252-4.917-4.252-8.091v-69.499c0-6.344,2.325-11.744,6.986-16.188
			c4.655-4.44,11.031-6.665,19.134-6.665c4.859,0,9.21,0.954,13.061,2.855c3.841,1.906,7.387,4.208,10.631,6.906l69.859,62.358
			c1.007,0.794,2.277,1.627,3.795,2.499c1.521,0.871,3.087,1.305,4.708,1.305c1.62,0,3.191-0.434,4.708-1.305
			c1.52-0.872,2.781-1.705,3.797-2.499l69.549-62.358h0.306c2.83-3.014,6.272-5.393,10.326-7.142
			c4.046-1.744,8.503-2.62,13.364-2.62c8.095,0,14.478,2.225,19.13,6.665c4.662,4.443,6.986,9.844,6.986,16.188V186.507z"/>
		<path fill="#293896" d="M614.908,105.582c0-3.175,1.42-5.868,4.254-8.093c2.83-2.22,6.272-3.333,10.33-3.333h215.349
			c4.042,0,7.482,1.113,10.325,3.333c2.831,2.225,4.25,4.918,4.25,8.093c0,3.178-1.419,5.873-4.25,8.091
			c-2.843,2.227-6.283,3.335-10.325,3.335H629.492c-4.058,0-7.5-1.108-10.33-3.335C616.328,111.455,614.908,108.76,614.908,105.582z
			 M614.908,145.326c0-4.283,1.573-7.14,4.708-8.562c3.141-1.428,8.049-2.142,14.733-2.142h203.807c4.05,0,7.492,1.109,10.326,3.327
			c2.835,2.228,4.254,4.921,4.254,8.091c0,3.174-1.419,5.873-4.254,8.091c-2.834,2.227-6.276,3.335-10.326,3.335H644.067v29.041
			c0,3.174-1.419,5.867-4.253,8.091c-2.835,2.227-6.277,3.335-10.322,3.335c-4.058,0-7.5-1.108-10.33-3.335
			c-2.834-2.224-4.254-4.917-4.254-8.091V145.326z"/>
	</g>
</g>
<g>
	<g>
		<path fill="#84C2EA" d="M929.454,64.384l3.862-9.841c0,0,15.582-20.561,47.308-19.712c0,0-11.515,24.756-40.743,31.078
			L929.454,64.384z"/>
		<path fill="#33A3DC" d="M931.166,60.118c0,0,15.705-13.347,38.911-10.931c0,0-4.534,4.933-12.208,9.626
			c0,0-9.072-2.802-27.643,3.595L931.166,60.118z"/>
		<path fill="#007DC5" d="M929.454,64.384l0.866-2.137c0,0,16.714-5.983,27.693-3.514c0,0-8.363,5.307-18.133,7.175L929.454,64.384z
			"/>
		<path fill="#0061AF" d="M929.454,64.384c0,0,10.571-3.146,16.406-0.046c0,0-2.023,0.654-5.979,1.57L929.454,64.384z"/>
	</g>
	<g>
		<path fill="#84C2EA" d="M929.445,67.574l10.436-1.685c0,0,25.637,2.943,41.062,30.67c0,0-27.167,2.703-47.504-19.224
			L929.445,67.574z"/>
		<path fill="#33A3DC" d="M933.979,66.879c0,0,19.496,6.712,29.235,27.916c0,0-6.557-1.383-14.508-5.597c0,0-2.2-9.25-17.167-21.954
			L933.979,66.879z"/>
		<path fill="#007DC5" d="M929.445,67.574l2.286-0.344c0,0,13.653,11.337,17.12,22.043c0,0-8.816-4.492-15.412-11.938
			L929.445,67.574z"/>
		<path fill="#0061AF" d="M929.445,67.574c0,0,8.091,7.498,8.4,14.104c0,0-1.598-1.415-4.406-4.343L929.445,67.574z"/>
	</g>
	<g>
		<path fill="#84C2EA" d="M924.146,67.098l-3.867,9.833c0,0-15.574,20.563-47.303,19.715c0,0,11.515-24.757,40.742-31.08
			L924.146,67.098z"/>
		<path fill="#33A3DC" d="M922.442,71.358c0,0-15.714,13.347-38.924,10.931c0,0,4.534-4.938,12.212-9.627
			c0,0,9.086,2.798,27.643-3.595L922.442,71.358z"/>
		<path fill="#007DC5" d="M924.146,67.098l-0.867,2.142c0,0-16.713,5.974-27.693,3.503c0,0,8.363-5.305,18.133-7.177L924.146,67.098
			z"/>
		<path fill="#0061AF" d="M924.146,67.098c0,0-10.568,3.14-16.403,0.042c0,0,2.015-0.656,5.976-1.575L924.146,67.098z"/>
	</g>
	<g>
		<path fill="#84C2EA" d="M924.15,63.904l-10.432,1.685c0,0-25.633-2.937-41.062-30.678c0,0,27.165-2.688,47.503,19.232
			L924.15,63.904z"/>
		<path fill="#33A3DC" d="M919.616,64.607c0,0-19.487-6.722-29.231-27.929c0,0,6.553,1.39,14.504,5.607
			c0,0,2.21,9.242,17.176,21.948L919.616,64.607z"/>
		<path fill="#007DC5" d="M924.15,63.904l-2.281,0.342c0,0-13.654-11.337-17.125-22.043c0,0,8.826,4.5,15.416,11.94L924.15,63.904z"
			/>
		<path fill="#0061AF" d="M924.15,63.904c0,0-8.091-7.49-8.393-14.095c0,0,1.594,1.405,4.402,4.334L924.15,63.904z"/>
	</g>
	<g>
		<path fill="#84C2EA" d="M926.705,62.757l-6.515-8.333c0,0-9.804-23.858,7.041-50.758c0,0,15.472,22.483,6.085,50.877
			L926.705,62.757z"/>
		<path fill="#33A3DC" d="M923.899,59.12c0,0-3.519-20.314,10.348-39.087c0,0,1.942,6.423,2.091,15.415
			c0,0-7.028,6.397-10.942,25.636L923.899,59.12z"/>
		<path fill="#007DC5" d="M926.705,62.757l-1.407-1.835c0,0,3.34-17.433,11.036-25.649c0,0,0.326,9.912-3.018,19.271L926.705,62.757
			z"/>
		<path fill="#0061AF" d="M926.705,62.757c0,0,2.65-10.7,8.289-14.163c0,0-0.462,2.086-1.678,5.949L926.705,62.757z"/>
	</g>
	<g>
		<path fill="#84C2EA" d="M926.679,69.173l6.804,8.197c0,0,10.33,23.54-6.804,50.325c0,0-16.189-22.135-6.756-50.325L926.679,69.173
			z"/>
		<path fill="#33A3DC" d="M929.603,72.75c0,0,3.82,20.087-10.31,38.794c0,0-2.077-6.327-2.32-15.238c0,0,7.203-6.399,11.066-25.49
			L929.603,72.75z"/>
		<path fill="#007DC5" d="M926.679,69.173l1.458,1.809c0,0-3.271,17.301-11.159,25.492c0,0-0.416-9.81,2.945-19.103L926.679,69.173z
			"/>
		<path fill="#0061AF" d="M926.679,69.173c0,0-2.646,10.625-8.435,14.106c0,0,0.463-2.065,1.679-5.909L926.679,69.173z"/>
	</g>
</g>
</svg>
